<?xml version="1.0" standalone="no"?>
<!DOCTYPE svg PUBLIC "-//W3C//DTD SVG 20010904//EN"
 "http://www.w3.org/TR/2001/REC-SVG-20010904/DTD/svg10.dtd">
<svg version="1.0" xmlns="http://www.w3.org/2000/svg"
 width="512.000000pt" height="512.000000pt" viewBox="0 0 512.000000 512.000000"
 preserveAspectRatio="xMidYMid meet">

<g transform="translate(0.000000,512.000000) scale(0.100000,-0.100000)"
fill="#ffffff" stroke="none">
<path d="M2151 4674 c-74 -31 -94 -68 -173 -304 -40 -121 -76 -220 -80 -220
-5 0 -99 46 -211 102 -182 91 -207 101 -257 101 -33 0 -69 -7 -90 -17 -48 -24
-526 -501 -553 -551 -14 -27 -21 -59 -21 -96 -1 -51 8 -73 102 -262 56 -113
102 -208 102 -210 0 -3 -91 -35 -202 -72 -229 -76 -243 -82 -279 -122 -60 -63
-59 -59 -59 -463 0 -411 1 -415 65 -476 28 -26 75 -46 255 -106 121 -40 220
-76 220 -80 0 -5 -46 -99 -102 -211 -91 -182 -101 -207 -101 -257 0 -33 7 -69
18 -90 24 -48 500 -526 550 -553 26 -14 59 -21 96 -21 50 -1 73 8 262 102 113
56 208 102 211 102 2 0 34 -93 72 -206 72 -219 87 -249 147 -298 l39 -31 397
0 397 0 43 28 c23 15 51 42 61 60 11 18 50 122 86 232 37 110 70 204 74 208 4
4 99 -38 212 -94 187 -93 210 -102 261 -101 31 0 69 8 88 17 47 24 526 501
552 550 14 26 21 59 21 95 0 50 -9 75 -102 264 -57 114 -102 209 -100 211 2 2
92 32 201 69 221 74 241 82 278 123 60 63 59 59 59 463 0 411 -1 415 -65 476
-28 26 -75 46 -255 106 -121 40 -220 76 -220 80 0 5 46 99 102 211 91 182 101
207 101 257 0 36 -7 68 -21 95 -25 49 -503 526 -552 551 -21 11 -57 18 -91 18
-51 1 -72 -8 -258 -102 -111 -56 -206 -102 -210 -102 -5 0 -36 84 -70 186 -34
102 -68 203 -77 223 -19 46 -59 87 -106 112 -35 18 -62 19 -410 19 -306 -1
-379 -3 -407 -16z m630 -571 c66 -190 105 -252 202 -314 78 -50 142 -69 237
-69 95 0 110 5 293 93 l148 71 116 -116 116 -116 -67 -122 c-36 -67 -75 -148
-86 -181 -63 -185 29 -412 202 -500 24 -12 106 -43 183 -69 l140 -47 0 -169 0
-169 -161 -56 c-219 -76 -287 -127 -351 -266 -21 -46 -28 -77 -31 -149 -5
-112 0 -128 91 -317 l71 -148 -116 -116 -116 -116 -131 71 c-72 39 -154 78
-183 87 -147 43 -327 -9 -432 -125 -48 -54 -71 -102 -126 -265 l-47 -140 -169
0 -169 0 -56 161 c-76 219 -127 287 -266 351 -46 21 -77 28 -149 31 -112 5
-128 0 -317 -91 l-148 -71 -116 116 -116 116 70 129 c94 172 106 212 101 327
-3 72 -10 103 -31 149 -64 139 -132 190 -351 266 l-161 56 0 165 0 165 161 56
c219 76 287 127 351 266 21 46 28 77 31 149 5 112 0 130 -91 311 l-72 143 118
117 117 118 143 -72 c179 -91 198 -96 311 -91 72 3 103 10 150 31 136 63 194
139 265 350 28 81 53 152 56 158 4 6 71 8 168 7 l162 -3 56 -162z"/>
<path d="M2385 3395 c-169 -37 -304 -112 -430 -240 -104 -105 -158 -193 -206
-335 -28 -82 -33 -112 -36 -225 -5 -148 7 -223 56 -350 42 -110 100 -195 196
-291 163 -162 363 -244 598 -244 234 1 431 83 598 249 166 167 248 364 249
598 0 235 -82 435 -244 598 -128 128 -267 205 -436 241 -81 17 -265 17 -345
-1z m246 -415 c226 -43 384 -258 350 -477 -30 -191 -173 -334 -364 -364 -223
-35 -437 126 -478 359 -31 172 73 367 235 443 98 46 166 56 257 39z"/>
</g>
</svg>
